<svg width="25" height="19" viewBox="0 0 25 19" fill="none" xmlns="http://www.w3.org/2000/svg">
<path d="M3.125 3.125C2.2962 3.125 1.50134 3.45424 0.915291 4.04029C0.32924 4.62634 0 5.4212 0 6.25L0 15.625C0 16.4538 0.32924 17.2487 0.915291 17.8347C1.50134 18.4208 2.2962 18.75 3.125 18.75H21.875C22.7038 18.75 23.4987 18.4208 24.0847 17.8347C24.6708 17.2487 25 16.4538 25 15.625V6.25C25 5.4212 24.6708 4.62634 24.0847 4.04029C23.4987 3.45424 22.7038 3.125 21.875 3.125H20.0438C19.215 3.12482 18.4203 2.79547 17.8344 2.20938L16.5406 0.915625C15.9547 0.329533 15.16 0.000176992 14.3312 0H10.6688C9.84002 0.000176992 9.04529 0.329533 8.45938 0.915625L7.16562 2.20938C6.57971 2.79547 5.78498 3.12482 4.95625 3.125H3.125ZM3.90625 6.25C3.69905 6.25 3.50034 6.16769 3.35382 6.02118C3.20731 5.87466 3.125 5.67595 3.125 5.46875C3.125 5.26155 3.20731 5.06284 3.35382 4.91632C3.50034 4.76981 3.69905 4.6875 3.90625 4.6875C4.11345 4.6875 4.31216 4.76981 4.45868 4.91632C4.60519 5.06284 4.6875 5.26155 4.6875 5.46875C4.6875 5.67595 4.60519 5.87466 4.45868 6.02118C4.31216 6.16769 4.11345 6.25 3.90625 6.25ZM17.9688 10.1562C17.9688 11.6067 17.3926 12.9977 16.367 14.0232C15.3414 15.0488 13.9504 15.625 12.5 15.625C11.0496 15.625 9.6586 15.0488 8.63301 14.0232C7.60742 12.9977 7.03125 11.6067 7.03125 10.1562C7.03125 8.70585 7.60742 7.31485 8.63301 6.28926C9.6586 5.26367 11.0496 4.6875 12.5 4.6875C13.9504 4.6875 15.3414 5.26367 16.367 6.28926C17.3926 7.31485 17.9687 8.70585 17.9688 10.1562V10.1562Z" fill="#DB9080"/>
</svg>
