<svg width="113" height="113" viewBox="0 0 113 113" fill="none" xmlns="http://www.w3.org/2000/svg">
<g clip-path="url(#clip0_1_2590)">
<path d="M96.4495 16.5505C85.7725 5.87353 71.6 0 56.5 0C41.4 0 27.2275 5.87353 16.5505 16.5505C5.87353 27.2275 0 41.4 0 56.5C0 71.6 5.87353 85.7725 16.5505 96.4495C27.2275 107.126 41.4 113 56.5 113C71.6 113 85.7725 107.126 96.4495 96.4495C107.126 85.7725 113 71.6 113 56.5C113 41.4 107.126 27.2275 96.4495 16.5505ZM91.9076 91.9076C82.4434 101.372 69.8641 106.58 56.5 106.58C43.1359 106.58 30.5566 101.372 21.0924 91.9076C1.56944 72.3847 1.56944 40.6153 21.0924 21.0924C30.5566 11.6282 43.1359 6.42045 56.5 6.42045C69.8641 6.42045 82.4434 11.6282 91.9076 21.0924C111.431 40.6153 111.431 72.3847 91.9076 91.9076Z" fill="#FF4E4D"/>
<path d="M81.3971 31.6025C80.1368 30.3421 78.1156 30.3421 76.8553 31.6025L56.5 51.9577L36.1448 31.6025C34.8845 30.3421 32.8633 30.3421 31.6029 31.6025C30.3426 32.8628 30.3426 34.884 31.6029 36.1443L51.9582 56.4996L31.6029 76.8548C30.3426 78.1151 30.3426 80.1363 31.6029 81.3966C32.2212 82.0149 33.0535 82.3478 33.862 82.3478C34.6705 82.3478 35.5028 82.0387 36.121 81.3966L56.4763 61.0414L76.8315 81.3966C77.4498 82.0149 78.282 82.3478 79.0905 82.3478C79.9228 82.3478 80.7313 82.0387 81.3496 81.3966C82.6099 80.1363 82.6099 78.1151 81.3496 76.8548L61.0419 56.4996L81.3971 36.1443C82.6575 34.884 82.6575 32.8628 81.3971 31.6025Z" fill="#FF4E4D"/>
</g>
<defs>
<clipPath id="clip0_1_2590">
<rect width="113" height="113" fill="white"/>
</clipPath>
</defs>
</svg>
