<svg width="241" height="156" viewBox="0 0 241 156" fill="none" xmlns="http://www.w3.org/2000/svg">
<path d="M217.548 151.096C217.548 142.46 210.546 135.46 201.912 135.46H186.092C182.631 135.46 179.868 132.75 179.609 129.299C178.614 116.042 172.044 103.134 159.784 94.4297C143.852 83.1199 121.964 83.0924 106.032 94.3984C86.9427 107.946 81.5608 131.7 89.7338 151.096H217.548Z" fill="#FFA39C"/>
<path d="M141.18 80.3717L80.3712 141.181C77.319 144.233 77.319 149.183 80.3712 152.237C83.4252 155.289 88.375 155.289 91.4272 152.237L152.236 91.4277C155.288 88.3755 155.288 83.4257 152.236 80.3717C149.182 77.3195 144.232 77.3195 141.18 80.3717Z" fill="#DB9080"/>
<path d="M78.332 137.692L0.425035 4.49772C-1.1213 1.85369 1.85369 -1.1213 4.49772 0.425035L137.692 78.332L78.332 137.692Z" fill="#F7D291"/>
<path d="M97.4101 102.029L127.228 72.2114L137.692 78.3324L78.3319 137.692L0.424937 4.49816C-0.200216 3.42805 -0.0825402 2.29726 0.452517 1.44043L85.9348 101.579C88.8969 105.047 94.185 105.254 97.4101 102.029Z" fill="#F0C382"/>
<path d="M16.3737 31.7658H23.9472V44.712L31.7635 58.0774V54.9829H47.1662V70.3837H38.9619L43.5348 78.2018H47.1662V84.4092L57.1153 101.419H70.3832V116.818H66.1212L78.1995 137.468V124.634H91.3902L101.417 114.608V101.419H114.605L124.634 91.3907V78.2018H137.468L116.816 66.1235V70.3856H101.415V57.1158L84.4069 47.1666H78.1995V43.5371L70.3832 38.9643V47.1685H54.9824V31.7658H58.0769L44.7134 23.9496H31.7635V16.376L23.9472 11.8032V23.9496H11.8027L16.3737 31.7658ZM93.5985 70.3837H78.1995V54.9829H93.5985V70.3837ZM101.417 93.6008V78.2H116.817V93.6008H101.417ZM93.5985 93.6008H78.1995V78.2H93.5985V93.6008ZM78.1995 101.417H93.5985V116.816H78.1995V101.417ZM54.9824 78.2H70.3832V93.6008H54.9824V78.2ZM54.9824 54.9829H70.3832V70.3837H54.9824V54.9829ZM31.7635 31.7658L47.1662 31.764V47.1666H31.7635V31.7658Z" fill="#F0C382"/>
<path d="M78.1994 137.468L66.1211 116.816H70.3832V101.417H57.1152L47.1661 84.4088V78.1996H43.5347L38.9619 70.3834H47.1661V56.1611L54.9824 65.3178V70.3834H59.3051L65.9795 78.1996H54.9824V93.6004H70.3832V83.359L78.2013 92.5156V93.6004H79.1261L85.7987 101.417H78.2013V116.816H93.6003V104.127C94.9903 103.814 96.3215 103.119 97.41 102.031L105.839 93.6004H116.817V82.6235L127.228 72.211L137.468 78.1996H124.634V91.3903L114.607 101.417H101.417V114.607L91.3902 124.634H78.2013V137.468H78.1994Z" fill="#E3AA75"/>
<path d="M31.7635 38.1198V47.1662H39.486L46.1586 54.9824H31.7635V58.0769L23.9472 44.7115V31.7654H16.3737L11.8027 23.9473H19.6668L31.7635 38.1198Z" fill="#E3AA75"/>
<path d="M135.651 74.8442L74.8438 135.651C73.3177 137.177 73.3177 139.654 74.8438 141.18C76.3699 142.706 78.8448 142.706 80.3709 141.18L141.18 80.3713C142.706 78.8452 142.706 76.3703 141.18 74.8442C139.654 73.3163 137.179 73.3163 135.651 74.8442Z" fill="#F7D291"/>
<path d="M99.7194 116.304C101.245 117.83 103.72 117.83 105.248 116.304L80.3709 141.18C78.8448 142.706 76.3699 142.706 74.8438 141.18C73.3177 139.654 73.3177 137.179 74.8438 135.653L99.7194 110.775C98.1933 112.301 98.1933 114.776 99.7194 116.304Z" fill="#F0C382"/>
<path d="M107.953 137.476L108.238 137.139C108.086 137.145 108.003 137.281 107.953 137.476Z" fill="#FF8087"/>
<path d="M237.091 147.187C237.091 147.187 138.131 147.522 113.565 147.31C109.882 147.279 106.401 145.56 104.213 142.596C100.755 137.885 101.251 131.356 105.383 127.224L152.236 80.371C149.178 77.3757 144.214 77.3077 141.182 80.3415L140.967 80.5567C134.338 87.1851 108.681 112.975 91.8775 129.778C88.2296 133.426 83.2964 135.462 78.1389 135.462H69.008C62.6001 135.462 57.1356 139.332 54.7306 144.854C54.1128 146.271 52.7227 147.187 51.1782 147.187H45.5555C43.3969 147.187 41.6465 148.937 41.6465 151.096C41.6465 153.255 43.3969 155.005 45.5555 155.005H237.091C239.25 155.005 241 153.255 241 151.096C241 148.937 239.25 147.187 237.091 147.187Z" fill="#FCD6CE"/>
</svg>
