<svg width="150" height="134" viewBox="0 0 150 134" fill="none" xmlns="http://www.w3.org/2000/svg">
<path d="M139.185 20.6904H10.8145V130.565H139.185V20.6904Z" fill="#E9EAEB"/>
<path d="M139.187 20.6904H122.889V130.565H139.187V20.6904Z" fill="#B9BBC1"/>
<path d="M139.633 20.6896H10.3662V2.65264C10.3662 1.21152 11.5343 0.043457 12.9754 0.043457H137.024C138.465 0.043457 139.633 1.21152 139.633 2.65264V20.6896Z" fill="#DC7676"/>
<path d="M137.025 0.043457H123.336V13.6217H139.634V2.65264C139.634 1.21182 138.466 0.043457 137.025 0.043457Z" fill="#9E5969"/>
<path d="M10.8149 53.3971C4.90693 53.3971 0.117188 48.6076 0.117188 42.6996V33.9844H21.5124V42.6996C21.5127 48.6076 16.7229 53.3971 10.8149 53.3971Z" fill="#FED2A4"/>
<path d="M32.2095 53.3971C26.3015 53.3971 21.5117 48.6076 21.5117 42.6996V33.9844H42.9069V42.6996C42.9072 48.6076 38.1175 53.3971 32.2095 53.3971Z" fill="#F2F2F2"/>
<path d="M53.605 53.3971C47.697 53.3971 42.9072 48.6076 42.9072 42.6996V33.9844H64.3024V42.6996C64.3027 48.6076 59.513 53.3971 53.605 53.3971Z" fill="#FED2A4"/>
<path d="M75.0005 53.3971C69.0925 53.3971 64.3027 48.6076 64.3027 42.6996V33.9844H85.698V42.6996C85.698 48.6076 80.9085 53.3971 75.0005 53.3971Z" fill="#F2F2F2"/>
<path d="M96.395 53.3971C90.487 53.3971 85.6973 48.6076 85.6973 42.6996V33.9844H107.092V42.6996C107.093 48.6076 102.303 53.3971 96.395 53.3971Z" fill="#FED2A4"/>
<path d="M117.791 53.3971C111.883 53.3971 107.093 48.6076 107.093 42.6996V33.9844H128.488V42.6996C128.488 48.6076 123.699 53.3971 117.791 53.3971Z" fill="#F2F2F2"/>
<path d="M139.186 53.3971C133.278 53.3971 128.488 48.6076 128.488 42.6996V33.9844H149.884V42.6996C149.884 48.6076 145.094 53.3971 139.186 53.3971Z" fill="#FED2A4"/>
<path d="M21.5124 33.9841H0.117188L10.3562 13.6216H28.8261L21.5124 33.9841Z" fill="#FC997D"/>
<path d="M42.9069 33.9841H21.5117L28.8254 13.6216H47.295L42.9069 33.9841Z" fill="white"/>
<path d="M64.3024 33.9841H42.9072L47.2953 13.6216H65.7652L64.3024 33.9841Z" fill="#FC997D"/>
<path d="M85.698 33.9841H64.3027L65.7655 13.6216H84.2355L85.698 33.9841Z" fill="white"/>
<path d="M107.092 33.9841H85.6969L84.2344 13.6216H102.704L107.092 33.9841Z" fill="#FC997D"/>
<path d="M128.488 33.9841H107.093L102.705 13.6216H121.175L128.488 33.9841Z" fill="white"/>
<path d="M149.883 33.9841H128.488L121.175 13.6216H139.645L149.883 33.9841Z" fill="#FC997D"/>
<path d="M145.114 120.526H4.88584C2.1876 120.526 0 122.713 0 125.412V132.572C0 133.337 0.620215 133.956 1.38486 133.956H148.615C149.38 133.956 150 133.336 150 132.572V125.412C150 122.713 147.812 120.526 145.114 120.526Z" fill="#8B8996"/>
<path d="M145.114 120.526H133.652V133.956H148.615C149.38 133.956 150 133.337 150 132.572V125.412C150 122.713 147.813 120.526 145.114 120.526Z" fill="#706F7F"/>
<path d="M126.541 106.166H60.6489C59.5737 106.166 58.7021 105.295 58.7021 104.22V67.9614C58.7021 66.8862 59.5737 66.0146 60.6489 66.0146H126.541C127.617 66.0146 128.488 66.8862 128.488 67.9614V104.22C128.488 105.295 127.617 106.166 126.541 106.166Z" fill="#FCD6CE"/>
<path d="M126.541 66.0146H112.14V106.166H126.541C127.616 106.166 128.488 105.295 128.488 104.22V67.9614C128.488 66.8862 127.616 66.0146 126.541 66.0146Z" fill="#DB9080"/>
<path d="M49.448 120.526H19.3848V67.9614C19.3848 66.8862 20.2563 66.0146 21.3315 66.0146H47.5013C48.5765 66.0146 49.448 66.8862 49.448 67.9614V120.526Z" fill="#FCD6CE"/>
<path d="M47.5011 66.0146H33.0996V120.526H49.4476V67.9614C49.4479 66.8862 48.5763 66.0146 47.5011 66.0146Z" fill="#DB9080"/>
<path d="M41.0467 96.8054C42.2968 96.8054 43.3102 95.792 43.3102 94.5419V90.4676C43.3102 89.2175 42.2968 88.2041 41.0467 88.2041C39.7966 88.2041 38.7832 89.2175 38.7832 90.4676V94.5419C38.7829 95.792 39.7966 96.8054 41.0467 96.8054Z" fill="white"/>
</svg>
