<svg width="58" height="64" viewBox="0 0 58 64" fill="none" xmlns="http://www.w3.org/2000/svg">
<path d="M55.0931 15.66C53.5512 13.1656 51.349 11.1524 48.7243 9.84154L29.0333 0.000244141L9.34219 9.84154C6.71758 11.1524 4.51533 13.1656 2.97339 15.66C1.43145 18.1545 0.616211 21.025 0.616211 23.9564V35.09C0.616211 40.3186 4.85652 44.5589 10.0891 44.5589H13.2468C19.3408 44.5589 24.4407 48.8951 25.6192 54.6417C25.9217 56.1129 27.1944 57.1822 28.6957 57.1822H29.3708C30.874 57.1822 32.1467 56.1129 32.4473 54.6417C33.6277 48.8933 38.7275 44.5589 44.8197 44.5589H47.9773C53.2081 44.5589 57.4503 40.3204 57.4503 35.09V23.9564C57.4503 21.025 56.635 18.1545 55.0931 15.66ZM29.0333 46.727C27.6297 44.6179 25.8166 42.8038 23.7066 41.4045C25.8166 40.0033 27.6315 38.1892 29.0333 36.0801C30.4369 38.1892 32.2499 40.0033 34.3599 41.4045C32.2499 42.8056 30.4369 44.6179 29.0333 46.727ZM51.1368 35.0919C51.1368 36.8341 49.724 38.2482 47.9792 38.2482H44.8215C38.7275 38.2482 33.6277 33.912 32.4491 28.1654C32.1467 26.6941 30.874 25.6248 29.3726 25.6248H28.6976C27.1944 25.6248 25.9217 26.6941 25.6211 28.1654C24.4407 33.9138 19.3427 38.2482 13.2487 38.2482H10.091C8.34801 38.2482 6.93336 36.836 6.93336 35.0919V23.9582C6.93336 20.3484 8.94008 17.1036 12.1697 15.4886L29.037 7.0595L45.9042 15.4904C49.1338 17.1036 51.1405 20.3484 51.1405 23.96V35.0919H51.1368Z" fill="#DB9080"/>
<path d="M10.0863 63.4965H16.4016C18.1446 63.4965 19.5592 62.0843 19.5592 60.3402C19.5592 58.598 18.1464 57.1839 16.4016 57.1839H10.0863C8.34328 57.1839 6.92859 55.7717 6.92859 54.0276C6.92859 52.2854 5.51574 50.8713 3.77091 50.8713C2.02793 50.8713 0.613281 52.2836 0.613281 54.0276C0.613281 59.258 4.85548 63.4965 10.0863 63.4965Z" fill="#DB9080"/>
<path d="M54.2922 50.873C52.5492 50.873 51.1345 52.2853 51.1345 54.0293C51.1345 55.7716 49.7217 57.1856 47.9769 57.1856H41.6616C39.9186 57.1856 38.5039 58.5978 38.5039 60.3419C38.5039 62.0842 39.9168 63.4982 41.6616 63.4982H47.9769C53.2077 63.4982 57.4498 59.2597 57.4498 54.0293C57.4498 52.2853 56.037 50.873 54.2922 50.873Z" fill="#DB9080"/>
</svg>
