<svg width="126" height="113" viewBox="0 0 126 113" fill="none" xmlns="http://www.w3.org/2000/svg">
<path d="M48.5606 112.801C75.3799 112.801 97.1212 91.0596 97.1212 64.2403C97.1212 37.421 75.3799 15.6797 48.5606 15.6797C21.7413 15.6797 0 37.421 0 64.2403C0 91.0596 21.7413 112.801 48.5606 112.801Z" fill="#FCD6CE"/>
<path d="M49.11 101.775L48.494 100.725C39.0856 84.6952 14.084 50.6769 13.8315 50.3353L13.4708 49.8453L21.9887 41.4273L48.9518 60.2548C65.9285 38.2251 81.7665 23.0941 92.0976 14.2581C103.399 4.59251 110.755 0.142777 110.83 0.100137L110.997 0H125.446L124.066 1.22915C88.5697 32.8453 50.0959 100.042 49.7127 100.717L49.11 101.775Z" fill="#DB9080"/>
</svg>
